<?xml version="1.0" encoding="UTF-8" standalone="no"?>
<!-- Created with Inkscape (http://www.inkscape.org/) -->

<svg
   width="794.81158"
   height="744.35535"
   viewBox="0 0 210.2939 196.94402"
   version="1.1"
   id="svg7079"
   inkscape:version="1.1.2 (b8e25be833, 2022-02-05)"
   sodipodi:docname="sword.svg"
   xmlns:inkscape="http://www.inkscape.org/namespaces/inkscape"
   xmlns:sodipodi="http://sodipodi.sourceforge.net/DTD/sodipodi-0.dtd"
   xmlns="http://www.w3.org/2000/svg"
   xmlns:svg="http://www.w3.org/2000/svg">
  <sodipodi:namedview
     id="namedview7081"
     pagecolor="#ffffff"
     bordercolor="#666666"
     borderopacity="1.0"
     inkscape:pageshadow="2"
     inkscape:pageopacity="0.0"
     inkscape:pagecheckerboard="false"
     inkscape:document-units="mm"
     showgrid="false"
     inkscape:zoom="0.54488788"
     inkscape:cx="199.12354"
     inkscape:cy="423.94043"
     inkscape:window-width="1858"
     inkscape:window-height="1057"
     inkscape:window-x="-1866"
     inkscape:window-y="-8"
     inkscape:window-maximized="1"
     inkscape:current-layer="layer1"
     units="px"
     fit-margin-top="0"
     fit-margin-left="0"
     fit-margin-right="0"
     fit-margin-bottom="0" />
  <defs
     id="defs7076">
    <filter
       inkscape:collect="always"
       style="color-interpolation-filters:sRGB"
       id="filter5935"
       x="-0.17187221"
       y="-0.029817279"
       width="1.3437444"
       height="1.0596346">
      <feGaussianBlur
         inkscape:collect="always"
         stdDeviation="1.1831545"
         id="feGaussianBlur5937" />
    </filter>
  </defs>
  <g
     inkscape:label="Layer 1"
     inkscape:groupmode="layer"
     id="layer1">
    <g
       id="g6588"
       transform="matrix(1.5691284,1.7387348,-1.7387348,1.5691284,303.05958,-357.82241)"
       inkscape:export-filename="C:\Users\Salih Ceyhan\ink\sword.png"
       inkscape:export-xdpi="96"
       inkscape:export-ydpi="96">
      <path
         style="fill:#483737;stroke-width:0.0276013"
         d="m 79.889352,220.26169 c 0.22283,-0.31917 0.42581,-0.6092 0.45109,-0.64452 0.043,-0.06 0.0546,-0.0623 0.17941,-0.035 1.91931,0.42018 3.52403,0.69489 4.85326,0.83085 0.166985,0.0171 0.331565,0.037 0.365715,0.0442 l 0.0621,0.0132 v -1.80841 c 0,-1.00481 0.0107,-1.80841 0.024,-1.80841 0.0259,0 0.0454,-1.52391 0.0875,-6.84511 0.0994,-12.54933 0.13921,-17.54189 0.16401,-20.54913 0.0155,-1.88241 0.0406,-4.95029 0.0557,-6.81751 0.0565,-6.99402 0.0844,-10.41411 0.11028,-13.55222 0.0147,-1.77614 0.0397,-5.0117 0.0557,-7.19013 0.0313,-4.27959 0.0683,-6.79458 0.1102,-7.49374 0.0969,-1.61628 0.24627,-3.11414 0.45808,-4.59206 0.27458,-1.91595 0.64068,-3.53635 0.83968,-3.71644 0.0521,-0.0472 0.0571,-0.0472 0.10825,-9.1e-4 0.14848,0.13438 0.44131,1.28859 0.65135,2.56739 l 0.0679,0.41307 v 32.54168 32.54168 l -0.12924,-0.12305 c -0.1183,-0.11263 -0.11538,-0.1069 0.0345,0.0676 0.17223,0.20058 0.46371,0.46429 0.64786,0.58615 l 0.10931,0.0723 v 2.57705 c 0,2.5378 8.2e-4,2.57705 0.0539,2.57705 0.0525,0 0.0541,-0.0313 0.0621,-1.24896 0.008,-1.23518 0.009,-1.25071 0.0726,-1.40855 0.0668,-0.16544 0.21354,-0.37964 0.2737,-0.39946 0.0274,-0.009 0.0345,0.35992 0.0345,1.78338 0,0.98712 0.009,1.80014 0.0207,1.80672 0.0114,0.007 0.2629,-0.0162 0.55893,-0.0506 1.418095,-0.16478 2.855625,-0.40527 4.231915,-0.70797 0.34646,-0.0762 0.63334,-0.13428 0.63747,-0.12907 0.004,0.005 0.14182,0.202 0.30594,0.4373 0.16412,0.2353 0.36486,0.52303 0.44611,0.63939 l 0.14773,0.21157 -0.1355,0.0291 c -0.25548,0.0548 -1.39697,0.24878 -2.03171,0.34527 -1.42103,0.21602 -2.76089,0.37148 -3.884865,0.45075 l -0.68313,0.0482 -0.0301,0.0914 c -0.0166,0.0503 -0.0705,0.14423 -0.11985,0.20886 l -0.0897,0.11751 -0.021,2.5793 c -0.0115,1.41861 -0.0298,3.04507 -0.0406,3.61434 l -0.0196,1.03505 0.0892,0.0762 c 0.0491,0.0419 0.0972,0.11239 0.10694,0.15669 0.0222,0.1013 -0.0463,0.24122 -0.13895,0.28341 -0.0631,0.0288 -0.0677,0.0449 -0.0679,0.24031 -4.4e-4,0.35004 -0.12092,5.46525 -0.15494,6.57847 -0.0165,0.53847 -0.0138,0.60033 0.0256,0.60033 0.0242,0 0.0785,0.0466 0.12075,0.10351 0.0422,0.0569 0.10496,0.13085 0.13941,0.16429 0.0344,0.0334 0.0626,0.0806 0.0626,0.10482 0,0.0242 -0.0282,0.0714 -0.0626,0.10482 -0.0345,0.0334 -0.0972,0.10736 -0.13941,0.16429 -0.0422,0.0569 -0.0958,0.1035 -0.11908,0.1035 -0.0528,0 -0.0568,-0.008 0.14065,0.28916 0.61974,0.93349 0.60107,1.8053 -0.0527,2.45846 -0.36544,0.36513 -0.6792,0.49584 -1.18834,0.49507 -0.49887,-7.4e-4 -0.84169,-0.14985 -1.19162,-0.51823 -0.63281,-0.66619 -0.63408,-1.52405 -0.004,-2.46591 l 0.1474,-0.22022 -0.0833,-0.0837 c -0.15224,-0.15294 -0.2627,-0.29055 -0.2627,-0.32726 0,-0.0374 0.11002,-0.17351 0.2715,-0.33598 l 0.0921,-0.0926 -0.0301,-1.12436 c -0.044,-1.64169 -0.0797,-3.11411 -0.11545,-4.75391 -0.0186,-0.85355 -0.0423,-1.4531 -0.0576,-1.45888 -0.0798,-0.03 -0.16407,-0.13956 -0.17885,-0.23242 -0.0151,-0.0947 -0.007,-0.11364 0.0908,-0.20701 l 0.10738,-0.10278 -0.018,-1.02125 c -0.01,-0.56168 -0.0275,-2.18815 -0.039,-3.61436 l -0.0211,-2.59312 -0.0897,-0.11749 c -0.0493,-0.0646 -0.10325,-0.15859 -0.11983,-0.20884 l -0.0302,-0.0914 -0.68312,-0.0482 c -1.154585,-0.0814 -2.593115,-0.25006 -4.064285,-0.47645 -0.74764,-0.11504 -1.87272,-0.31162 -1.937,-0.33843 -0.0382,-0.0159 0.0245,-0.12081 0.35881,-0.59965 z m 7.433155,-6.41659 c 0.20607,-0.23681 0.4124,-0.50326 0.33263,-0.42955 l -0.0877,0.0811 -0.004,-30.64946 c -0.002,-16.8572 -0.0138,-30.57013 -0.0263,-30.47317 -0.0441,0.34015 -0.1072,1.51694 -0.13417,2.50103 -0.015,0.54651 -0.0341,4.29752 -0.0425,8.33558 -0.008,4.03807 -0.0341,16.80641 -0.0571,28.37409 -0.039,19.59931 -0.0463,22.30698 -0.0601,22.34322 -0.003,0.008 0.0326,-0.0297 0.0788,-0.0828 z"
         id="path2083" />
      <path
         style="opacity:1;mix-blend-mode:lighten;fill:#a50d15;fill-opacity:0.552419;stroke-width:0.0276013;filter:url(#filter5935)"
         d="m 80.129006,219.84392 c 0.22283,-0.31917 0.42581,-0.6092 0.45109,-0.64452 0.043,-0.06 0.0546,-0.0623 0.17941,-0.035 1.91931,0.42018 3.52403,0.69489 4.85326,0.83085 0.166985,0.0171 0.331565,0.037 0.365715,0.0442 l 0.0621,0.0132 v -1.80841 c 0,-1.00481 0.0107,-1.80841 0.024,-1.80841 0.0259,0 0.0454,-1.52391 0.0875,-6.84511 0.0994,-12.54933 0.13921,-17.54189 0.16401,-20.54913 0.0155,-1.88241 0.0406,-4.95029 0.0557,-6.81751 0.0565,-6.99402 0.0844,-10.41411 0.11028,-13.55222 0.0147,-1.77614 0.0397,-5.0117 0.0557,-7.19013 0.0313,-4.27959 0.0683,-6.79458 0.1102,-7.49374 0.0969,-1.61628 0.24627,-3.11414 0.45808,-4.59206 0.27458,-1.91595 0.64068,-3.53635 0.83968,-3.71644 0.0521,-0.0472 0.0571,-0.0472 0.10825,-9.1e-4 0.14848,0.13438 0.44131,1.28859 0.65135,2.56739 l 0.0679,0.41307 v 32.54168 32.54168 l -0.12924,-0.12305 c -0.1183,-0.11263 -0.11538,-0.1069 0.0345,0.0676 0.17223,0.20058 0.46371,0.46429 0.64786,0.58615 l 0.109306,0.0723 v 2.57705 c 0,2.5378 8.2e-4,2.57705 0.0539,2.57705 0.0525,0 0.0541,-0.0313 0.0621,-1.24896 0.008,-1.23518 0.009,-1.25071 0.0726,-1.40855 0.0668,-0.16544 0.21354,-0.37964 0.2737,-0.39946 0.0274,-0.009 0.0345,0.35992 0.0345,1.78338 0,0.98712 0.009,1.80014 0.0207,1.80672 0.0114,0.007 0.2629,-0.0162 0.55893,-0.0506 1.4181,-0.16478 2.85563,-0.40527 4.23192,-0.70797 0.34646,-0.0762 0.63334,-0.13428 0.63747,-0.12907 0.004,0.005 0.14182,0.202 0.30594,0.4373 0.16412,0.2353 0.36486,0.52303 0.44611,0.63939 l 0.14773,0.21157 -0.1355,0.0291 c -0.25548,0.0548 -1.39697,0.24878 -2.03171,0.34527 -1.42103,0.21602 -2.76089,0.37148 -3.88487,0.45075 l -0.68313,0.0482 -0.0301,0.0914 c -0.0166,0.0503 -0.0705,0.14423 -0.11985,0.20886 l -0.0897,0.11751 -0.021,2.5793 c -0.0115,1.41861 -0.0298,3.04507 -0.0406,3.61434 l -0.0196,1.03505 0.0892,0.0762 c 0.0491,0.0419 0.0972,0.11239 0.10694,0.15669 0.0222,0.1013 -0.0463,0.24122 -0.13895,0.28341 -0.0631,0.0288 -0.0677,0.0449 -0.0679,0.24031 -4.4e-4,0.35004 -0.12092,5.46525 -0.15494,6.57847 -0.0165,0.53847 -0.0138,0.60033 0.0256,0.60033 0.0242,0 0.0785,0.0466 0.12075,0.10351 0.0422,0.0569 0.10496,0.13085 0.13941,0.16429 0.0344,0.0334 0.0626,0.0806 0.0626,0.10482 0,0.0242 -0.0282,0.0714 -0.0626,0.10482 -0.0345,0.0334 -0.0972,0.10736 -0.13941,0.16429 -0.0422,0.0569 -0.0958,0.1035 -0.11908,0.1035 -0.0528,0 -0.0568,-0.008 0.14065,0.28916 0.61974,0.93349 0.60107,1.8053 -0.0527,2.45846 -0.36544,0.36513 -0.6792,0.49584 -1.18834,0.49507 -0.49887,-7.4e-4 -0.84169,-0.14985 -1.19162,-0.51823 -0.63281,-0.66619 -0.63408,-1.52405 -0.004,-2.46591 l 0.1474,-0.22022 -0.0833,-0.0837 c -0.15224,-0.15294 -0.2627,-0.29055 -0.2627,-0.32726 0,-0.0374 0.11002,-0.17351 0.2715,-0.33598 l 0.0921,-0.0926 -0.0301,-1.12436 c -0.044,-1.64169 -0.0797,-3.11411 -0.11545,-4.75391 -0.0186,-0.85355 -0.0423,-1.4531 -0.0576,-1.45888 -0.0798,-0.03 -0.16407,-0.13956 -0.17885,-0.23242 -0.0151,-0.0947 -0.007,-0.11364 0.0908,-0.20701 l 0.10738,-0.10278 -0.018,-1.02125 c -0.01,-0.56168 -0.0275,-2.18815 -0.039,-3.61436 l -0.0211,-2.59312 -0.0897,-0.11749 c -0.0493,-0.0646 -0.10325,-0.15859 -0.11983,-0.20884 l -0.0302,-0.0914 -0.68312,-0.0482 c -1.154585,-0.0814 -2.593115,-0.25006 -4.064285,-0.47645 -0.74764,-0.11504 -1.87272,-0.31162 -1.937,-0.33843 -0.0382,-0.0159 0.0245,-0.12081 0.35881,-0.59965 z m 7.433155,-6.41659 c 0.20607,-0.23681 0.4124,-0.50326 0.33263,-0.42955 l -0.0877,0.0811 -0.004,-30.64946 c -0.002,-16.8572 -0.0138,-30.57013 -0.0263,-30.47317 -0.0441,0.34015 -0.1072,1.51694 -0.13417,2.50103 -0.015,0.54651 -0.0341,4.29752 -0.0425,8.33558 -0.008,4.03807 -0.0341,16.80641 -0.0571,28.37409 -0.039,19.59931 -0.0463,22.30698 -0.0601,22.34322 -0.003,0.008 0.0326,-0.0297 0.0788,-0.0828 z"
         id="path4938" />
    </g>
  </g>
</svg>
